<svg xmlns="http://www.w3.org/2000/svg" version="1.1" xmlns:xlink="http://www.w3.org/1999/xlink" xmlns:svgjs="http://svgjs.com/svgjs" width="1440" height="560" preserveAspectRatio="none" viewBox="0 0 1440 560">
    <g mask="url(&quot;#SvgjsMask1000&quot;)" fill="none">
        <rect width="1440" height="560" x="0" y="0" fill="rgba(20, 20, 20, 1)"></rect>
        <path d="M -412.6125781931118,217 C -268.61,251.2 19.39,412 307.3874218068882,388 C 595.39,364 739.39,109.8 1027.3874218068881,97 C 1315.39,84.2 1664.86,326.8 1747.3874218068881,324 C 1829.91,321.2 1501.48,131.2 1440,83" stroke="rgba(12, 188, 252, 1)" stroke-width="2"></path>
        <path d="M -1256.1323396134082,249 C -1112.13,294 -824.13,499.4 -536.1323396134082,474 C -248.13,448.6 -104.13,126.2 183.86766038659175,122 C 471.87,117.8 652.64,444.8 903.8676603865918,453 C 1155.09,461.2 1332.77,221 1440,163" stroke="rgba(12, 188, 252, 1)" stroke-width="2"></path>
        <path d="M -731.7199215471393,339 C -587.72,326 -299.72,255.6 -11.719921547139274,274 C 276.28,292.4 420.28,478.6 708.2800784528607,431 C 996.28,383.4 1281.94,60.4 1428.2800784528608,36 C 1574.62,11.6 1437.66,254.4 1440,309" stroke="rgba(12, 188, 252, 1)" stroke-width="2"></path>
        <path d="M -493.02884765562965,542 C -349.03,476.2 -61.03,260.4 226.97115234437035,213 C 514.97,165.6 658.97,329.4 946.9711523443704,305 C 1234.97,280.6 1568.37,94.2 1666.9711523443702,91 C 1765.58,87.8 1485.39,249.4 1440,289" stroke="rgba(12, 188, 252, 1)" stroke-width="2"></path>
    </g>
    <defs>
        <mask id="SvgjsMask1000">
            <rect width="1440" height="560" fill="#ffffff"></rect>
        </mask>
    </defs>
</svg>